<svg width="245" height="375" xmlns="http://www.w3.org/2000/svg">
 <g>
  <title>Layer 1</title>
  <rect fill="#e8edf0" stroke="#e8edf0" x="1" y="1" width="243" height="373" id="svg_4" rx="15"/>
  <rect fill="#0079ba" stroke="#0079ba" x="12" y="12" width="221" height="351" id="svg_5" rx="10"/>
  <path fill="#e8edf0" stroke="#0079ba" d="m93.4095,218.45287l58.84009,0c8.48141,-0.01791 14.2675,-8.16033 14.23925,-16.53704l0,-5.63248c16.79209,-0.01505 28.97501,-14.40543 28.96873,-31.18537c0.00628,-17.07873 -11.9375,-31.11014 -25.83967,-31.09796l-90.69496,0l0,67.91724c0.01318,9.22291 6.97243,16.51913 14.48656,16.53561zm73.07746,-71.67748l0,0l3.12906,0c11.50439,-0.02078 15.1946,12.39848 15.13937,18.41573c0.0113,9.71587 -6.29264,19.03408 -18.26842,18.12985l0,-36.54558l-0.00001,0zm-119.98696,75.81318c0.01067,12.55397 8.39479,18.37561 15.14313,18.41143l121.71625,0c8.04956,-0.03583 15.10484,-7.26039 15.14062,-18.41143l-152.00001,0l0.00001,0z" id="svg_2"/>
 </g>
</svg>
